<svg xmlns="http://www.w3.org/2000/svg" xmlns:xlink="http://www.w3.org/1999/xlink" width="500" zoomAndPan="magnify" viewBox="0 0 375 374.999991" height="500" preserveAspectRatio="xMidYMid meet" version="1.0"><defs><clipPath id="aabeb4100c"><path d="M 100.636719 100.636719 L 274.363281 100.636719 L 274.363281 274.363281 L 100.636719 274.363281 Z M 100.636719 100.636719 " clip-rule="nonzero"/></clipPath><clipPath id="97a947dcb3"><path d="M 187.5 100.636719 C 139.527344 100.636719 100.636719 139.527344 100.636719 187.5 C 100.636719 235.472656 139.527344 274.363281 187.5 274.363281 C 235.472656 274.363281 274.363281 235.472656 274.363281 187.5 C 274.363281 139.527344 235.472656 100.636719 187.5 100.636719 " clip-rule="nonzero"/></clipPath></defs><g clip-path="url(#aabeb4100c)"><g clip-path="url(#97a947dcb3)"><path fill="#4acd8d" d="M 100.636719 100.636719 L 274.363281 100.636719 L 274.363281 274.363281 L 100.636719 274.363281 Z M 100.636719 100.636719 " fill-opacity="1" fill-rule="nonzero"/></g></g><path stroke-linecap="butt" transform="matrix(0.749962, 0.00749962, -0.00749962, 0.749962, 37.499998, 36.000108)" fill="none" stroke-linejoin="miter" d="M 0.00208388 7.500211 L 200.012094 7.500211 " stroke="#4acd8d" stroke-width="15" stroke-opacity="1" stroke-miterlimit="4"/><path stroke-linecap="butt" transform="matrix(-0.000000000000000121, 0.75, -0.75, -0.000000000000000121, 44.621253, 36.003821)" fill="none" stroke-linejoin="miter" d="M 0.000113886 7.500213 L 200.010544 7.500213 " stroke="#4acd8d" stroke-width="15" stroke-opacity="1" stroke-miterlimit="4"/><path stroke-linecap="butt" transform="matrix(-0.000000000000000121, 0.75, -0.75, -0.000000000000000121, 55.871254, 36.003821)" fill="none" stroke-linejoin="miter" d="M 0.000113886 7.500215 L 200.010544 7.500215 " stroke="#4acd8d" stroke-width="15" stroke-opacity="1" stroke-miterlimit="4"/><path stroke-linecap="butt" transform="matrix(0.749962, 0.00749962, -0.00749962, 0.749962, 37.387506, 48.74955)" fill="none" stroke-linejoin="miter" d="M 0.00104008 7.500964 L 200.011051 7.500965 " stroke="#4acd8d" stroke-width="15" stroke-opacity="1" stroke-miterlimit="4"/><path stroke-linecap="butt" transform="matrix(0.749962, 0.00749962, -0.00749962, 0.749962, 187.612492, 324.750564)" fill="none" stroke-linejoin="miter" d="M -0.00208033 7.499644 L 200.00793 7.499644 " stroke="#4acd8d" stroke-width="15" stroke-opacity="1" stroke-miterlimit="4"/><path stroke-linecap="butt" transform="matrix(-0.000000000000000121, 0.75, -0.75, -0.000000000000000121, 344.666233, 187.503739)" fill="none" stroke-linejoin="miter" d="M 0.00022315 7.497686 L 200.010653 7.497686 " stroke="#4acd8d" stroke-width="15" stroke-opacity="1" stroke-miterlimit="4"/><path stroke-linecap="butt" transform="matrix(0.000000000000000046, 0.75, -0.75, 0.000000000000000046, 333.416234, 187.503739)" fill="none" stroke-linejoin="miter" d="M 0.00022315 7.497687 L 200.010653 7.497687 " stroke="#4acd8d" stroke-width="15" stroke-opacity="1" stroke-miterlimit="4"/><path stroke-linecap="butt" transform="matrix(0.749962, 0.00749962, -0.00749962, 0.749962, 187.499992, 312.001151)" fill="none" stroke-linejoin="miter" d="M 0.0020783 7.49882 L 200.012089 7.49882 " stroke="#4acd8d" stroke-width="15" stroke-opacity="1" stroke-miterlimit="4"/></svg>